<svg width="102" height="21" viewBox="0 0 102 21" xmlns="http://www.w3.org/2000/svg"><title>import-io-logo-white</title><path d="M31.16 16.435c-1.185 0-2.137-.426-2.667-.895v4.793h-3.007V5.763h2.965v.745c.55-.533 1.547-1 2.71-1 2.86 0 5.19 2.087 5.19 5.474 0 3.302-2.33 5.453-5.19 5.453zm-.295-2.727c1.377 0 2.414-1.108 2.414-2.726 0-1.62-1.038-2.727-2.415-2.727s-2.414 1.108-2.414 2.727c0 1.618 1.038 2.726 2.415 2.726zm65.633-8.542c3.113 0 5.484 2.344 5.484 5.475 0 3.132-2.37 5.454-5.484 5.454-3.113 0-5.485-2.322-5.485-5.453 0-3.13 2.372-5.474 5.485-5.474zm0 8.116c1.397 0 2.414-1.108 2.414-2.64C98.912 9.106 97.895 8 96.498 8c-1.398 0-2.414 1.107-2.414 2.64 0 1.534 1.016 2.642 2.414 2.642zM44.83 5.166c3.113 0 5.485 2.344 5.485 5.475 0 3.132-2.372 5.454-5.485 5.454-3.113 0-5.485-2.322-5.485-5.453 0-3.13 2.372-5.474 5.485-5.474zm0 8.116c1.398 0 2.414-1.108 2.414-2.64C47.244 9.106 46.228 8 44.83 8c-1.398 0-2.414 1.107-2.414 2.64 0 1.534 1.016 2.642 2.414 2.642zM.343 1.162h3.03v2.875H.342V1.16zm0 4.494h3.03v10.438H.342V5.656zm55.984 10.438H53.32V5.656h5.97v2.79h-2.963v7.648zm8.132 0V8.447h-1.78v-2.79h1.78v-2.92h3.26v2.92h2.71v2.79h-2.963v4.856h2.86v2.79h-5.868zm-42.052 0h-3.006V8.447h-3.388v7.647h-3.007V8.447h-3.39v7.647H6.612V5.656H22.41v10.438zM86.618.927c.975 0 1.758.788 1.758 1.768 0 .958-.784 1.747-1.757 1.747-.975 0-1.738-.79-1.738-1.747 0-.98.763-1.768 1.737-1.768zm-1.503 4.73h3.028v10.437h-3.028V5.656zm-9.55 7.114h3.2v3.324h-3.2V12.77z" fill="#FFF" fill-rule="evenodd"/></svg>